<svg width="96" height="96" viewBox="0 0 96 96" xmlns="http://www.w3.org/2000/svg" role="img" aria-label="Dragon Gym logo">
  <defs>
    <linearGradient id="fire" x1="0%" y1="0%" x2="100%" y2="100%">
      <stop offset="0%" stop-color="#8ad5ff" />
      <stop offset="100%" stop-color="#2251ff" />
    </linearGradient>
  </defs>
  <circle cx="48" cy="48" r="44" fill="url(#fire)" stroke="#0b2c78" stroke-width="4" />
  <path d="M28 64c4-16 16-24 24-28-6 0-10 2-12 6 4-10 16-16 28-12 6 2 8 8 4 14-4 6-12 6-18 6 6 2 10 4 12 8-6 6-14 10-26 6-6-2-10-6-12-10Z" fill="#0b2c78"/>
  <circle cx="62" cy="42" r="3" fill="#e7f4ff" />
</svg>
